#!OML:ASF F:\VICON\USERDATA\INSTALL\rory3\rory3.ASF
:FULLY-SPECIFIED
:DEGREES
1821
root 16.8295 17.7704 -14.594 184.524 172.269 -176.9
lowerback 8.87016 2.97127 -1.94849
upperback 1.40912 3.71272 -1.35833
thorax -3.53567 1.85957 -0.751408
lowerneck -13.9227 -2.32566 -12.7584
upperneck 40.7973 -0.913049 4.83147
head 17.5196 -1.59078 4.39201
rclavicle -5.31749e-015 -6.36111e-015
rhumerus -32.9607 -13.5577 -82.6529
rradius 32.5077
rwrist 5.85667
rhand -15.5099 8.7547
rfingers 7.12502
rthumb 10.6729 -20.9542
lclavicle -5.31749e-015 -6.36111e-015
lhumerus -38.7183 17.4781 76.7889
lradius 33.1782
lwrist -6.91746
lhand -16.5707 29.0222
lfingers 7.12502
lthumb 9.64956 58.7812
rfemur -8.26748 -2.55444 21.8693
rtibia 35.6184
rfoot -21.8583 -5.49235
rtoes 8.32988
lfemur -15.2121 -3.02991 -26.2497
ltibia 28.3356
lfoot -13.0059 -12.0045
ltoes 7.32979
1822
root 16.8427 17.7743 -14.5965 184.459 172.471 -176.69
lowerback 9.03761 2.95545 -2.16373
upperback 1.3845 3.6627 -1.41211
thorax -3.66402 1.83718 -0.691704
lowerneck -13.9692 -2.46116 -12.8324
upperneck 40.742 -1.21559 5.09849
head 17.5416 -1.69064 4.4742
rclavicle -1.89839e-014 1.0138e-014
rhumerus -32.873 -13.7496 -82.7156
rradius 32.7009
rwrist 5.93252
rhand -15.4431 8.29595
rfingers 7.12502
rthumb 10.7374 -21.4096
lclavicle -1.89839e-014 1.0138e-014
lhumerus -38.5584 17.2533 76.7887
lradius 33.209
lwrist -7.60725
lhand -15.3404 29.7397
lfingers 7.12502
lthumb 10.8364 59.4402
rfemur -8.83959 -2.76328 21.5148
rtibia 36.7521
rfoot -21.6174 -5.12002
rtoes 8.51332
lfemur -14.9013 -2.81622 -26.4852
ltibia 27.9134
lfoot -13.0237 -12.3635
ltoes 6.75769
1823
root 16.857 17.7804 -14.5979 184.262 172.681 -176.583
lowerback 9.15743 2.90253 -2.27687
upperback 1.52009 3.57989 -1.41777
thorax -3.59562 1.79667 -0.626182
lowerneck -14.1478 -2.5664 -13.1245
upperneck 40.5714 -1.41167 5.44298
head 17.5248 -1.76572 4.64595
rclavicle -4.33351e-014 1.18277e-014
rhumerus -32.5198 -13.7044 -82.876
rradius 32.8201
rwrist 5.95013
rhand -15.8541 8.21583
rfingers 7.12502
rthumb 10.3409 -21.5099
lclavicle -4.33351e-014 1.18277e-014
lhumerus -38.1855 16.8775 76.9866
lradius 33.0015
lwrist -7.03801
lhand -16.3423 28.1476
lfingers 7.12502
lthumb 9.86996 57.8962
rfemur -9.22949 -3.04213 21.248
rtibia 37.8045
rfoot -21.2634 -4.60746
rtoes 9.59604
lfemur -14.4636 -2.17629 -26.6165
ltibia 27.4856
lfoot -12.7682 -13.1654
ltoes 8.08562
1824
root 16.8685 17.7892 -14.5949 184.044 172.799 -176.562
lowerback 9.03559 2.78167 -2.40825
upperback 1.79991 3.42004 -1.35827
thorax -3.24725 1.71674 -0.455675
lowerneck -14.4008 -2.62093 -13.2186
upperneck 40.2883 -1.46612 5.49696
head 17.4391 -1.78595 4.66376
rclavicle 1.8313e-014 5.26779e-015
rhumerus -31.8838 -13.6621 -83.0878
rradius 32.8071
rwrist 5.9298
rhand -16.0362 8.44817
rfingers 7.12502
rthumb 10.1653 -21.2863
lclavicle 1.8313e-014 5.26779e-015
lhumerus -37.6656 16.9167 77.0803
lradius 32.7755
lwrist -6.57072
lhand -17.1935 26.5464
lfingers 7.12502
lthumb 9.04866 56.3323
rfemur -9.52079 -3.2632 21.1041
rtibia 38.7722
rfoot -20.7126 -4.28803
rtoes 9.84207
lfemur -14.0146 -1.38666 -26.6397
ltibia 27.0838
lfoot -12.6186 -14.1006
ltoes 9.31505
1825
root 16.8769 17.7936 -14.5871 183.825 172.87 -176.624
lowerback 9.26008 2.68656 -2.36372
upperback 1.70319 3.28735 -1.36021
thorax -3.46798 1.65155 -0.481264
lowerneck -14.0806 -2.64516 -13.1711
upperneck 40.1758 -1.64099 5.63707
head 17.3139 -1.82988 4.67879
rclavicle -5.4144e-014 3.18055e-015
rhumerus -32.0196 -13.7332 -83.2255
rradius 32.9772
rwrist 5.8465
rhand -15.7771 8.54525
rfingers 7.12502
rthumb 10.4152 -21.1768
lclavicle -5.4144e-014 3.18055e-015
lhumerus -37.7182 16.5769 76.9707
lradius 32.8465
lwrist -6.66841
lhand -17.0825 27.0653
lfingers 7.12502
lthumb 9.15572 56.8465
rfemur -9.78479 -3.50962 21.0828
rtibia 39.6607
rfoot -20.3423 -4.40328
rtoes 7.3344
lfemur -13.5688 -0.902256 -26.5632
ltibia 26.7042
lfoot -12.6183 -14.6797
ltoes 9.05233
1826
root 16.8861 17.7978 -14.5847 183.665 172.998 -176.736
lowerback 9.43248 2.61677 -2.28914
upperback 1.629 3.19629 -1.30097
thorax -3.63907 1.60654 -0.461313
lowerneck -13.7895 -2.70099 -13.2045
upperneck 40.0516 -1.84036 5.79786
head 17.1978 -1.89335 4.71365
rclavicle 1.79155e-014 -1.04362e-014
rhumerus -32.1267 -13.5874 -83.3219
rradius 33.3015
rwrist 5.68735
rhand -15.5145 8.63534
rfingers 7.12502
rthumb 10.6685 -21.0738
lclavicle 1.79155e-014 -1.04362e-014
lhumerus -37.6975 15.8489 77.2253
lradius 33.1457
lwrist -6.53184
lhand -17.1292 27.8339
lfingers 7.12502
lthumb 9.11063 57.6171
rfemur -10.206 -3.83665 21.1224
rtibia 40.4906
rfoot -20.4013 -4.60869
rtoes 6.21348
lfemur -13.2098 -0.718587 -26.4333
ltibia 26.3262
lfoot -12.3484 -14.9192
ltoes 9.38567
1827
root 16.8995 17.8071 -14.5883 183.621 173.137 -176.766
lowerback 9.50718 2.54691 -2.25782
upperback 1.58756 3.1042 -1.27181
thorax -3.72256 1.56102 -0.44188
lowerneck -13.64 -2.76449 -13.1835
upperneck 39.9045 -2.01883 5.88967
head 17.1018 -1.94823 4.71045
rclavicle 3.16937e-014 8.44835e-015
rhumerus -32.0292 -13.5737 -83.4121
rradius 33.5431
rwrist 5.74564
rhand -15.5591 8.60755
rfingers 7.12502
rthumb 10.6255 -21.1038
lclavicle 3.16937e-014 8.44835e-015
lhumerus -37.5849 15.3809 77.3913
lradius 33.3299
lwrist -6.5394
lhand -16.9687 27.9719
lfingers 7.12502
lthumb 9.26551 57.7483
rfemur -10.7577 -4.22472 21.0478
rtibia 41.2949
rfoot -20.388 -4.70954
rtoes 6.11943
lfemur -12.9644 -0.596711 -26.4309
ltibia 25.9491
lfoot -12.0707 -15.0116
ltoes 9.97967
1828
root 16.9183 17.8146 -14.588 183.56 173.338 -176.661
lowerback 9.45389 2.41618 -2.39686
upperback 1.64119 2.92089 -1.2404
thorax -3.64365 1.47142 -0.304251
lowerneck -13.6464 -2.76817 -13.1075
upperneck 39.8564 -2.0682 5.90132
head 17.0805 -1.95715 4.68968
rclavicle -8.58501e-015 1.19271e-014
rhumerus -31.6865 -13.3721 -83.5972
rradius 33.7315
rwrist 5.82573
rhand -15.6782 8.286
rfingers 7.12502
rthumb 10.5106 -21.4312
lclavicle -8.58501e-015 1.19271e-014
lhumerus -37.4501 15.1936 77.5504
lradius 33.4957
lwrist -5.7372
lhand -17.4557 27.7435
lfingers 7.12502
lthumb 8.79565 57.5402
rfemur -11.2121 -4.5684 20.7767
rtibia 42.0485
rfoot -20.2181 -4.86853
rtoes 4.83914
lfemur -12.675 -0.534943 -26.627
ltibia 25.589
lfoot -11.9241 -14.8574
ltoes 10.1507
1829
root 16.9348 17.8172 -14.5881 183.432 173.467 -176.52
lowerback 9.47391 2.23719 -2.62032
upperback 1.72931 2.66472 -1.1741
thorax -3.57261 1.34636 -0.0766759
lowerneck -13.7261 -2.74593 -13.0431
upperneck 39.8051 -2.01397 5.79233
head 17.0617 -1.94101 4.63326
rclavicle -2.57923e-014 -2.98177e-016
rhumerus -31.333 -12.7301 -83.8842
rradius 34.0081
rwrist 5.67936
rhand -15.748 7.68629
rfingers 7.12502
rthumb 10.4433 -22.0343
lclavicle -2.57923e-014 -2.98177e-016
lhumerus -37.3029 14.8091 77.8517
lradius 33.7443
lwrist -4.47047
lhand -18.4775 27.5285
lfingers 7.12502
lthumb 7.80944 57.3642
rfemur -11.5726 -4.9037 20.4889
rtibia 42.7355
rfoot -20.3454 -5.16199
rtoes 3.73499
lfemur -12.3269 -0.515562 -26.8542
ltibia 25.2305
lfoot -11.7543 -14.7306
ltoes 10.3847
1830
root 16.9454 17.8227 -14.5879 183.235 173.552 -176.509
lowerback 9.64452 2.1336 -2.69956
upperback 1.77389 2.5166 -1.09821
thorax -3.6247 1.27405 0.0594738
lowerneck -13.811 -2.81786 -13.002
upperneck 39.7897 -2.11478 5.73769
head 17.0887 -1.98565 4.58162
rclavicle -1.11816e-014 -4.17448e-015
rhumerus -31.15 -12.3886 -84.0148
rradius 34.2326
rwrist 5.76395
rhand -15.6101 7.45151
rfingers 7.12502
rthumb 10.5763 -22.2624
lclavicle -1.11816e-014 -4.17448e-015
lhumerus -37.1363 14.5376 77.888
lradius 33.8561
lwrist -5.09599
lhand -17.9774 27.2694
lfingers 7.12502
lthumb 8.29217 57.0867
rfemur -11.8223 -5.14839 20.365
rtibia 43.3337
rfoot -20.7479 -5.31135
rtoes 3.58136
lfemur -11.9386 -0.502081 -26.9082
ltibia 24.8699
lfoot -11.6116 -14.6369
ltoes 10.4627
1831
root 16.9498 17.8305 -14.5889 183.088 173.546 -176.643
lowerback 9.82813 2.00426 -2.68535
upperback 1.75143 2.34259 -1.00352
thorax -3.74934 1.18898 0.164898
lowerneck -13.93 -2.8688 -13.0316
upperneck 39.8752 -2.23682 5.88713
head 17.1861 -2.02671 4.64036
rclavicle -3.79927e-014 6.65929e-015
rhumerus -31.0313 -12.2958 -84.1024
rradius 34.4103
rwrist 5.94662
rhand -15.2807 7.70857
rfingers 7.12502
rthumb 10.894 -21.9888
lclavicle -3.79927e-014 6.65929e-015
lhumerus -37.0754 14.1806 77.891
lradius 34.13
lwrist -5.81634
lhand -17.1803 27.1868
lfingers 7.12502
lthumb 9.06132 56.9722
rfemur -12.0953 -5.36502 20.4449
rtibia 43.8275
rfoot -21.0105 -5.56488
rtoes 2.23351
lfemur -11.6243 -0.542839 -26.7783
ltibia 24.5058
lfoot -11.5677 -14.5072
ltoes 10.0295
